<svg xmlns="http://www.w3.org/2000/svg" width="207.648" height="81.965" viewBox="0 0 207.648 81.965"><defs><style>.a{fill:#dd711f;}.b{fill:#f2842a;}.c{fill:#ff9739;}.d{fill:#ffc23b;}.e{fill:#edaa24;}.f{fill:#fad399;opacity:0.5;}</style></defs><g transform="translate(-1531.214 -697.598)"><g transform="translate(10 -85)"><path class="a" d="M-1022.942,1669.447a136.269,136.269,0,0,0-27.867-5.514,13.361,13.361,0,0,0-11.593,5.133c-4.1,5.267-10.235,15.039-16.672,32.092l19.382,3.827,36.621-17.415Z" transform="translate(2609.184 -855.343)"/><path class="b" d="M-983.061,1653.84a187.715,187.715,0,0,0-38.406-7.6,18.413,18.413,0,0,0-15.978,7.074c-5.656,7.258-14.106,20.726-22.977,44.229l26.712,9.258,50.472-27.985Z" transform="translate(2609.184 -855.343)"/><path class="a" d="M-945.35,1669.447a136.269,136.269,0,0,1,27.867-5.514,13.361,13.361,0,0,1,11.593,5.133c4.1,5.267,10.235,15.039,16.672,32.092l-19.382,3.827-36.622-17.415Z" transform="translate(2609.184 -855.343)"/><path class="b" d="M-985.232,1653.84a187.715,187.715,0,0,1,38.407-7.6,18.415,18.415,0,0,1,15.978,7.074c5.655,7.258,14.1,20.726,22.977,44.229l-26.713,9.258-50.472-27.985Z" transform="translate(2609.184 -855.343)"/><path class="c" d="M-930.227,1702.589H-956.2l-27.923-26.174-25.92,26.174H-1039.1l26.173-48.784a30.086,30.086,0,0,1,26.514-15.864h3.5a30.087,30.087,0,0,1,26.514,15.864Z" transform="translate(2609.184 -855.343)"/><g transform="translate(2609.184 -855.343)"><path class="d" d="M-1080.162,1719.905a7.782,7.782,0,0,1-5.951-2.751,7.8,7.8,0,0,1,.894-11l12.856-10.921a21.818,21.818,0,0,1,21.362-3.92l19.162,6.8a6.137,6.137,0,0,0,5.7-.844l29.085-21.437a21.649,21.649,0,0,1,25.812,0l29.085,21.437a6.135,6.135,0,0,0,5.7.844l19.163-6.8a21.816,21.816,0,0,1,21.362,3.92l12.855,10.921a7.8,7.8,0,0,1,.895,11,7.8,7.8,0,0,1-11,.894l-12.855-10.921a6.166,6.166,0,0,0-6.034-1.107l-19.163,6.8a21.722,21.722,0,0,1-20.184-2.988L-980.5,1688.4a6.114,6.114,0,0,0-7.291,0l-29.085,21.437a21.73,21.73,0,0,1-20.185,2.988l-19.162-6.8a6.158,6.158,0,0,0-6.034,1.108l-12.855,10.92A7.775,7.775,0,0,1-1080.162,1719.905Z"/></g><path class="e" d="M-882.179,1710.819a7.8,7.8,0,0,1-11,.9l-12.855-10.921a6.164,6.164,0,0,0-6.034-1.107l-19.163,6.8a21.719,21.719,0,0,1-20.184-2.988l-29.086-21.437a6.116,6.116,0,0,0-7.291,0l-29.085,21.437a21.727,21.727,0,0,1-20.185,2.988l-19.162-6.8a6.161,6.161,0,0,0-6.034,1.107l-12.855,10.921a7.775,7.775,0,0,1-5.049,1.857,7.786,7.786,0,0,1-5.951-2.752,7.744,7.744,0,0,1-1.179-1.88,7.8,7.8,0,0,0,1.179,8.215,7.782,7.782,0,0,0,5.951,2.751,7.775,7.775,0,0,0,5.049-1.857l12.855-10.92a6.158,6.158,0,0,1,6.034-1.108l19.162,6.8a21.73,21.73,0,0,0,20.185-2.988l29.085-21.437a6.114,6.114,0,0,1,7.291,0l29.086,21.437a21.722,21.722,0,0,0,20.184,2.988l19.163-6.8a6.166,6.166,0,0,1,6.034,1.107l12.855,10.921a7.8,7.8,0,0,0,11-.894,7.8,7.8,0,0,0,1.179-8.215A7.8,7.8,0,0,1-882.179,1710.819Z" transform="translate(2609.184 -855.343)"/><ellipse class="c" cx="18.402" cy="4.046" rx="18.402" ry="4.046" transform="matrix(0.54, -0.842, 0.842, 0.54, 1558.411, 823.195)"/><ellipse class="b" cx="11.307" cy="2.486" rx="11.307" ry="2.486" transform="matrix(0.54, -0.842, 0.842, 0.54, 1537.89, 829.325)"/><ellipse class="c" cx="4.046" cy="18.402" rx="4.046" ry="18.402" transform="matrix(0.842, -0.54, 0.54, 0.842, 1664.983, 796.587)"/><ellipse class="b" cx="2.486" cy="11.307" rx="2.486" ry="11.307" transform="matrix(0.842, -0.54, 0.54, 0.842, 1695.791, 812.975)"/></g><path class="f" d="M-964.813,1648.693c0,4.54-8.656-.45-19.333-.45s-19.333,4.99-19.333.45,8.656-9.249,19.333-9.249S-964.813,1644.152-964.813,1648.693Z" transform="translate(2619.184 -938.343)"/></g></svg>