<svg xmlns="http://www.w3.org/2000/svg" width="273.894" height="207.224" viewBox="0 0 273.894 207.224"><defs><style>.a,.b{fill:#051323;}.b,.f,.l{opacity:0.5;}.c,.d,.e,.f{fill:#ffde76;}.c{opacity:0.1;}.e{opacity:0.2;}.g{fill:#dd711f;}.h{fill:#e57f45;}.i,.l{fill:#f2842a;}.j{fill:#f59e66;}.k{fill:#ff9739;}.m{fill:#fff;}.n{fill:#060610;}.o{fill:#ffc23b;}.p{fill:#edaa24;}</style></defs><g transform="translate(-1479 -422)"><path class="a" d="M-978.516,1582.509s-14.583-.657-18.694,10.462c0,0,13.279,4.471,19.734-8.824l4.222.991-3.5-2.1,1.349-6.7Z" transform="translate(2601.184 -1154.343)"/><path class="b" d="M-1039.855,1598.273s6.851-.309,8.783,4.915a7.617,7.617,0,0,1-9.272-4.145l-1.983.466,1.644-.987-.634-3.146Z" transform="translate(2601.184 -1154.343)"/><path class="b" d="M-1072.654,1654.03s-6.708-1.427-9.469,3.41a7.615,7.615,0,0,0,9.825-2.571l1.881.785-1.461-1.242,1.141-3Z" transform="translate(2601.184 -1154.343)"/><path class="b" d="M-893.978,1652.954s-6.709-1.427-9.47,3.41a7.618,7.618,0,0,0,9.826-2.571l1.88.785-1.46-1.243,1.14-3Z" transform="translate(2601.184 -1154.343)"/><path class="b" d="M-934.654,1582.5s-6.4,2.474-6.063,8.033a7.616,7.616,0,0,0,6.821-7.525l2-.371-1.9-.242-.685-3.135Z" transform="translate(2601.184 -1154.343)"/><path class="a" d="M-1026.738,1627.726a20.577,20.577,0,0,0-6.843-4.855,11.279,11.279,0,0,0-1.5-2.4,26.159,26.159,0,0,0-3.683-3.3q-.851,2.3-1.7,4.593a16.221,16.221,0,0,0-8.252,3.172c.271-3.179-2.285-6.359-2.285-6.359,1.55,5.4-3.477,11.658-3.477,11.658,3.758,0,5.762-3.829,5.762-3.829a25.333,25.333,0,0,0,4.127,4.051c-.921.37-2.577,1.066-2.834.677a8.7,8.7,0,0,0,1.742,1.931.1.1,0,0,0,.053.027.1.1,0,0,0,.071-.039,5.74,5.74,0,0,0,1.428-2.264,14.63,14.63,0,0,0,17.4.313l-3.179-2.312Z" transform="translate(2601.184 -1154.343)"/><path class="a" d="M-940.732,1615.27a13.966,13.966,0,0,1,4.646-3.3,7.671,7.671,0,0,1,1.021-1.631,17.771,17.771,0,0,1,2.5-2.242l1.156,3.118a11.012,11.012,0,0,1,5.6,2.154,7.171,7.171,0,0,1,1.551-4.317c-1.052,3.663,2.361,7.914,2.361,7.914-2.551,0-3.912-2.6-3.912-2.6a17.2,17.2,0,0,1-2.8,2.75c.625.251,1.749.724,1.924.459a5.885,5.885,0,0,1-1.184,1.311.063.063,0,0,1-.036.019.066.066,0,0,1-.047-.027,3.893,3.893,0,0,1-.97-1.537,9.932,9.932,0,0,1-11.811.213l2.159-1.57Z" transform="translate(2601.184 -1154.343)"/><path class="a" d="M-967.406,1622.239a4.1,4.1,0,0,0,.048-1.889,5.823,5.823,0,0,0-.928-1.821.832.832,0,0,0-.44-.4.78.78,0,0,0-.532.121,5.691,5.691,0,0,0-1.747,1.417c.156-.189,1.4.9,1.525,1.027a4.437,4.437,0,0,1,.7,1,11.582,11.582,0,0,0-6.08-.138l-2.712-3.989,1.84,4.588-1.559,1.935,2.135-1.239c5.71,8.634,12.2,3.777,12.2,3.777A10.155,10.155,0,0,0-967.406,1622.239Z" transform="translate(2601.184 -1154.343)"/><g transform="translate(2601.184 -1154.343)"><path class="a" d="M-1087.664,1753.8a16.014,16.014,0,0,1,.315-1.995,18.155,18.155,0,0,1,.613-1.95,44.043,44.043,0,0,1,1.89-4.014c.279-.548.56-1.11.836-1.683.032.177.064.353.109.53a7.2,7.2,0,0,0,1.281,2.563,22.279,22.279,0,0,0,3.594,3.329,14.368,14.368,0,0,1,1.442,1.393,12.96,12.96,0,0,1,1.179,1.576,10.515,10.515,0,0,1,1.454,3.486,6.571,6.571,0,0,1-1.868,6.228,13.035,13.035,0,0,1-4.777,2.794c2.931-.34,6.127-.664,9.558-.97a10.93,10.93,0,0,0,1.446-3.533,11.343,11.343,0,0,0-.229-5.569,14.612,14.612,0,0,0-2.385-4.678,16.649,16.649,0,0,0-1.7-1.925,18.132,18.132,0,0,0-1.95-1.611,20.553,20.553,0,0,1-3.291-2.542,4.1,4.1,0,0,1-.862-1.4,4.835,4.835,0,0,1-.253-1.717,8.7,8.7,0,0,1,1.062-3.761,42.8,42.8,0,0,1,2.326-3.755,21.952,21.952,0,0,0,3.522-8.682,16.226,16.226,0,0,0-1.056-9.188,13.581,13.581,0,0,0-6.057-6.679,13.23,13.23,0,0,1,5.4,6.939,15.155,15.155,0,0,1,.324,8.65,20.167,20.167,0,0,1-3.87,7.731c-.747.976-1.55,1.968-2.29,3.064a24.144,24.144,0,0,0-2.031-9.478c-1.189-2.936-2.658-5.646-3.87-8.44a24.02,24.02,0,0,1-2.3-8.712,14.461,14.461,0,0,1,.489-4.5,10.7,10.7,0,0,1,2.1-4.039,10.884,10.884,0,0,0-2.44,3.93,15,15,0,0,0-.862,4.608,25.066,25.066,0,0,0,1.688,9.228c.4,1.151.833,2.285,1.27,3.409q-.315-.556-.655-1.091a41.406,41.406,0,0,0-2.843-3.892,42.447,42.447,0,0,0-6.824-6.625,21.8,21.8,0,0,1,10.026-16.155,22.381,22.381,0,0,0-11.535,17.728,22.57,22.57,0,0,0,.231,5.595,22.583,22.583,0,0,0,1.579,5.419,25.567,25.567,0,0,0,2.831,4.89c1.065,1.505,2.176,2.92,3.1,4.368a16.71,16.71,0,0,1,1.218,2.189c.029.063.054.127.082.19a35.774,35.774,0,0,1-6.16,5.584c-1.11.853-2.237,1.723-3.337,2.656-.063-.1-.125-.2-.189-.3a26.177,26.177,0,0,0-2.623-3.372,61.288,61.288,0,0,1-5.193-5.963,12.644,12.644,0,0,1-1.651-3.336,12.152,12.152,0,0,1-.482-3.741,19.347,19.347,0,0,1,.483-3.872,24.785,24.785,0,0,1,1.143-3.79,13.534,13.534,0,0,1,4.671-6.321,13.88,13.88,0,0,0-5.319,6.03,25.712,25.712,0,0,0-1.525,3.806,20.747,20.747,0,0,0-.871,4.059,13.8,13.8,0,0,0,.178,4.259,14.569,14.569,0,0,0,1.557,4.021,62.083,62.083,0,0,0,4.814,6.651,23.387,23.387,0,0,1,2.057,3.177c.173.334.326.669.469,1.007-.521.543-1.028,1.109-1.509,1.716a15.787,15.787,0,0,0-2.616,4.706,12.4,12.4,0,0,0-.545,5.61,15.037,15.037,0,0,0,2.035,5.719,23.354,23.354,0,0,1-2.653,3.423c.06-.3.123-.594.171-.9a17.87,17.87,0,0,0,.1-5.526,12.482,12.482,0,0,0-2.018-5.291,16.634,16.634,0,0,0-3.388-3.5c.276-.339.548-.687.809-1.053a10.9,10.9,0,0,0,1.453-2.76,9.835,9.835,0,0,0,.514-3.057,15.268,15.268,0,0,0-1.173-5.806c-1.453-3.628-3.759-6.669-5.124-10.233,1.037,3.67,3.092,7.007,4.146,10.569a14,14,0,0,1,.6,5.378,8.157,8.157,0,0,1-.654,2.5,8.98,8.98,0,0,1-1.4,2.147c-.288.339-.6.667-.922.993-.843-.617-1.671-1.212-2.451-1.836a11.92,11.92,0,0,1-3.043-3.3,7.237,7.237,0,0,1,1.005-8.55,7.782,7.782,0,0,0-2.624,4.094,7.992,7.992,0,0,0-.257,2.536,6.748,6.748,0,0,0,.2,1.287,7.739,7.739,0,0,0,.393,1.243,13.621,13.621,0,0,0,2.871,4.245c.676.726,1.372,1.407,2.051,2.076-.408.4-.817.811-1.217,1.255a12.363,12.363,0,0,0-1.829,2.633,11.646,11.646,0,0,0-.985,3.145,12.994,12.994,0,0,0-.046,3.285,13.588,13.588,0,0,0,.829,3.2,13.022,13.022,0,0,0,1.7,2.916c.1.124.211.242.318.362h3.445l.177-.3c-.023.04-.043.081-.065.121l.369.174h5.528c.048-.152.1-.3.14-.459l.474.459h5.247c.287-.419.566-.842.828-1.275.513.456,1.046.875,1.59,1.275h2.018a114.188,114.188,0,0,1,14.919-2.586A15.778,15.778,0,0,1-1087.664,1753.8Zm-25.92,13.427a7.963,7.963,0,0,1-1.677-1.28,9.315,9.315,0,0,1-1.343-1.883,10.216,10.216,0,0,1-.808-2.243,9.766,9.766,0,0,1-.189-2.4,8.669,8.669,0,0,1,.5-2.335,9.643,9.643,0,0,1,1.231-2.155c.286-.386.6-.767.925-1.15a13.342,13.342,0,0,1,2.233,3.1,7.59,7.59,0,0,1,.63,1.864,9.041,9.041,0,0,1,.195,1.972A15.39,15.39,0,0,1-1113.584,1767.227Zm11.577-12.015a23.926,23.926,0,0,1-.759,2.887,9.4,9.4,0,0,1-.324-1.136,8.292,8.292,0,0,1,.082-3.815,11.57,11.57,0,0,1,1.369-3.131A21.079,21.079,0,0,1-1102.007,1755.212Zm15.674-24.287a10.5,10.5,0,0,0,.137-4.027c.088.259.176.519.258.779a21.714,21.714,0,0,1,1.2,8.594,12.654,12.654,0,0,1-1.081,3.984c-.281.634-.608,1.261-.962,1.891a11.773,11.773,0,0,0-.1-5.809,11.868,11.868,0,0,0-.744-2.01A13.808,13.808,0,0,0-1086.333,1730.925Zm-12.507,32.572c-.223-.177-.438-.365-.649-.556a28.692,28.692,0,0,0,1.1-3.609,13.849,13.849,0,0,0,.337,3.3,15.388,15.388,0,0,0,.577,1.835A16.5,16.5,0,0,1-1098.84,1763.5Zm5.6-2.117a9.041,9.041,0,0,1-.354-2.045,6.548,6.548,0,0,1,.046-1.047,6.818,6.818,0,0,1,.16-1.088,17.369,17.369,0,0,1,1.534-4.152c-.01.057-.023.114-.031.171a20.467,20.467,0,0,0-.211,5.186,21.7,21.7,0,0,0,1.124,5.086,19.367,19.367,0,0,0,1.086,2.537A8.983,8.983,0,0,1-1093.24,1761.38Zm2.948-19.8c-.982,3.01-3.193,5.807-5.123,9.052a22.935,22.935,0,0,0-2.376,5.2l0-.021a22.912,22.912,0,0,0-.672-8.745c-.074-.251-.163-.5-.25-.748,1.153-1.2,2.42-2.347,3.707-3.491a43.7,43.7,0,0,0,5.124-5.146A8.687,8.687,0,0,1-1090.292,1741.585Zm1.51-9.337c-.266-.409-.545-.8-.828-1.185-2.266-3.043-4.835-5.462-6.338-8.548a20.643,20.643,0,0,1-1.767-4.857,21.067,21.067,0,0,1-.555-5.184c0-.547.04-1.094.091-1.639a42.078,42.078,0,0,1,6.259,7.051,40.285,40.285,0,0,1,2.489,4,15.128,15.128,0,0,1,1.624,4.259,8.865,8.865,0,0,1-.245,4.334A11.031,11.031,0,0,1-1088.782,1732.248Z"/><path class="a" d="M-852.373,1764.746a4.4,4.4,0,0,1-.859-2.122,5.733,5.733,0,0,1,.391-2.473c.585-1.718,1.726-3.6,1.652-5.773a4.362,4.362,0,0,0-1.189-2.849,4.289,4.289,0,0,0-2.618-1.346,3.974,3.974,0,0,1,2.96,4.176,7,7,0,0,1-.893,2.562c-.44.823-.989,1.634-1.464,2.556-.109.209-.215.428-.315.653a12.129,12.129,0,0,0-.112-1.29,11.573,11.573,0,0,0-.985-3.145,12.327,12.327,0,0,0-1.828-2.633c-1.367-1.518-2.85-2.7-3.995-4.044a9,9,0,0,1-1.4-2.147,8.129,8.129,0,0,1-.653-2.5,13.964,13.964,0,0,1,.6-5.378c1.054-3.562,3.108-6.9,4.146-10.569-1.366,3.564-3.672,6.6-5.125,10.233a15.253,15.253,0,0,0-1.172,5.806,9.829,9.829,0,0,0,.513,3.057,10.9,10.9,0,0,0,1.454,2.76c1.185,1.663,2.584,3,3.631,4.419a9.621,9.621,0,0,1,1.232,2.154,8.7,8.7,0,0,1,.5,2.335,9.866,9.866,0,0,1-.189,2.4,10.216,10.216,0,0,1-.808,2.243,9.394,9.394,0,0,1-1.343,1.883c-.093.092-.19.179-.286.266a17.354,17.354,0,0,0,.941-4.537,12.48,12.48,0,0,0-.881-5.594,17.36,17.36,0,0,0-2.869-4.466c-1.082-1.275-2.193-2.425-3.177-3.623a11.911,11.911,0,0,1-2.3-3.858,6.817,6.817,0,0,1,.187-4.935c.728-.926,1.459-1.881,2.138-2.895.138-.113.279-.224.427-.327-.114.057-.224.123-.335.187.3-.451.586-.91.855-1.389a14.575,14.575,0,0,0,1.558-4.021,13.765,13.765,0,0,0,.177-4.258,20.67,20.67,0,0,0-.871-4.06,25.7,25.7,0,0,0-1.524-3.806,13.878,13.878,0,0,0-5.319-6.029,13.527,13.527,0,0,1,4.671,6.32,24.9,24.9,0,0,1,1.143,3.79,19.421,19.421,0,0,1,.482,3.872,12.156,12.156,0,0,1-.482,3.741,12.61,12.61,0,0,1-1.65,3.336,61.162,61.162,0,0,1-5.194,5.963,26.356,26.356,0,0,0-2.623,3.372c-.064.1-.126.2-.188.3-1.1-.933-2.228-1.8-3.337-2.656a35.776,35.776,0,0,1-6.161-5.584c.028-.063.053-.127.082-.19a16.719,16.719,0,0,1,1.219-2.189c.922-1.448,2.033-2.863,3.1-4.368a25.508,25.508,0,0,0,2.83-4.89,22.625,22.625,0,0,0,1.58-5.419,22.668,22.668,0,0,0,.231-5.595,22.386,22.386,0,0,0-11.535-17.728,21.8,21.8,0,0,1,10.025,16.155,42.445,42.445,0,0,0-6.824,6.625,41.433,41.433,0,0,0-2.843,3.892c-.226.356-.445.72-.654,1.091.436-1.124.871-2.258,1.27-3.409a25.069,25.069,0,0,0,1.687-9.228,15,15,0,0,0-.862-4.608,10.888,10.888,0,0,0-2.44-3.93,10.7,10.7,0,0,1,2.1,4.039,14.462,14.462,0,0,1,.49,4.5,24.022,24.022,0,0,1-2.3,8.712c-1.212,2.794-2.68,5.5-3.87,8.44a24.142,24.142,0,0,0-2.03,9.478c-.741-1.1-1.543-2.088-2.29-3.064a20.139,20.139,0,0,1-3.87-7.731,15.155,15.155,0,0,1,.323-8.65,13.23,13.23,0,0,1,5.4-6.939,13.587,13.587,0,0,0-6.057,6.679,16.225,16.225,0,0,0-1.055,9.188,21.945,21.945,0,0,0,3.522,8.682,43.3,43.3,0,0,1,2.326,3.755,8.711,8.711,0,0,1,1.061,3.761,4.815,4.815,0,0,1-.253,1.717,4.086,4.086,0,0,1-.862,1.4,20.475,20.475,0,0,1-3.29,2.542,18.256,18.256,0,0,0-1.951,1.611,16.647,16.647,0,0,0-1.7,1.925,14.625,14.625,0,0,0-2.386,4.678,11.357,11.357,0,0,0-.229,5.569,10.9,10.9,0,0,0,1.32,3.334q4.551.358,8.62.755a12.1,12.1,0,0,1-3.713-2.38,6.571,6.571,0,0,1-1.868-6.228,10.56,10.56,0,0,1,1.454-3.486,12.856,12.856,0,0,1,1.18-1.576,14.374,14.374,0,0,1,1.442-1.393,22.32,22.32,0,0,0,3.594-3.329,7.218,7.218,0,0,0,1.28-2.563c.045-.177.078-.353.11-.53.275.573.557,1.136.835,1.683a43.8,43.8,0,0,1,1.89,4.014,17.937,17.937,0,0,1,.613,1.95,16.017,16.017,0,0,1,.316,1.995,15.81,15.81,0,0,1-4.145,12.145,168.881,168.881,0,0,1,17.13,2.513c.371-.287.739-.581,1.094-.9.262.432.538.856.822,1.275h5.254l.175-.169.223.169h5.678c.082-.167.167-.333.245-.5l.3.5h3.444c.107-.12.217-.238.318-.362a13.029,13.029,0,0,0,1.7-2.916c.146-.373.27-.753.383-1.135a7.184,7.184,0,0,0,.675,1.874,8.459,8.459,0,0,0,2.107,2.539h3.663l.484-1.386A7.187,7.187,0,0,1-852.373,1764.746Zm-36.253-28.643a11.76,11.76,0,0,0-.1,5.809c-.354-.63-.681-1.257-.963-1.891a12.677,12.677,0,0,1-1.08-3.984,21.716,21.716,0,0,1,1.2-8.594c.083-.26.171-.52.259-.779a10.5,10.5,0,0,0,.136,4.027,13.845,13.845,0,0,0,1.289,3.4A11.782,11.782,0,0,0-888.626,1736.1Zm1.9-4.089a11.126,11.126,0,0,1-.731-1.768,8.878,8.878,0,0,1-.245-4.334,15.188,15.188,0,0,1,1.624-4.259,40.49,40.49,0,0,1,2.489-4,42.087,42.087,0,0,1,6.26-7.051c.05.545.086,1.092.09,1.639a20.974,20.974,0,0,1-.555,5.184,20.69,20.69,0,0,1-1.766,4.857c-1.5,3.086-4.073,5.505-6.338,8.548C-886.178,1731.211-886.456,1731.606-886.722,1732.014Zm4.457,29.132a8.981,8.981,0,0,1-3.353,4.648,19.358,19.358,0,0,0,1.086-2.537,21.7,21.7,0,0,0,1.123-5.086,20.422,20.422,0,0,0-.21-5.186c-.009-.057-.022-.114-.031-.171a17.365,17.365,0,0,1,1.533,4.152,6.619,6.619,0,0,1,.16,1.088,6.548,6.548,0,0,1,.046,1.047A8.984,8.984,0,0,1-882.265,1761.146Zm-2.948-19.8a8.715,8.715,0,0,1-.412-3.9,43.775,43.775,0,0,0,5.124,5.146c1.287,1.145,2.555,2.294,3.707,3.491-.087.249-.175.5-.25.748a22.93,22.93,0,0,0-.672,8.745l0,.021a22.977,22.977,0,0,0-2.377-5.2C-882.019,1747.158-884.23,1744.361-885.213,1741.351Zm8.548,21.912a16.374,16.374,0,0,1-1.367.974,15.39,15.39,0,0,0,.578-1.835,13.849,13.849,0,0,0,.337-3.3,28.846,28.846,0,0,0,1.1,3.608C-876.227,1762.9-876.441,1763.086-876.665,1763.263Zm4.25-6.534a9.6,9.6,0,0,1-.323,1.136,23.918,23.918,0,0,1-.76-2.887,21.125,21.125,0,0,1-.367-5.2,11.564,11.564,0,0,1,1.368,3.131A8.279,8.279,0,0,1-872.415,1756.729Zm8.6,4.186a15.643,15.643,0,0,1-3.18,6.241,23.149,23.149,0,0,1-3.247-4.028,15.053,15.053,0,0,0,2.035-5.719,12.408,12.408,0,0,0-.545-5.61,15.831,15.831,0,0,0-2.616-4.706c-.482-.607-.989-1.173-1.51-1.716.143-.338.3-.673.47-1.007a23.377,23.377,0,0,1,2.056-3.177c.088-.118.18-.236.269-.353a7.515,7.515,0,0,0-.165.8,6.741,6.741,0,0,0-.071,1.3,7.858,7.858,0,0,0,.128,1.3,13.611,13.611,0,0,0,1.931,4.746c.863,1.434,1.811,2.759,2.63,4.078a14.165,14.165,0,0,1,1.8,3.933,7.566,7.566,0,0,1,.231,1.954A9.113,9.113,0,0,1-863.816,1760.915Z"/><path class="c" d="M-981.715,1761.283q-1.755,0-3.517,0l2.027,0h.924c61.585.129,111.028,4.265,111.028,9.348,0,5.164-51.03,9.35-113.979,9.35s-113.979-4.186-113.979-9.35c0-5.083,49.443-9.219,111.029-9.348h.923l2.027,0q-1.762,0-3.516,0c-73.4.153-132.323,5.082-132.323,11.14,0,6.155,60.817,11.144,135.839,11.144s135.84-4.989,135.84-11.144C-849.392,1766.365-908.319,1761.436-981.715,1761.283Z"/><path class="d" d="M-983.205,1761.281l-2.027,0,2.028,0Z"/><path class="d" d="M-987.26,1761.281l2.028,0-2.027,0Z"/><path class="d" d="M-982.776,1761.282h0Z"/><path class="d" d="M-987.26,1761.281h0Z"/><path class="d" d="M-983.2,1761.281l-2.028,0,2.031,0Z"/><path class="d" d="M-987.263,1761.281l2.031,0-2.028,0Z"/><path class="e" d="M-890.49,1769.052c0,4.292-42.417,7.772-94.742,7.772s-94.742-3.48-94.742-7.772c0-4.226,41.1-7.663,92.286-7.77h-.494c-61.586.129-111.029,4.265-111.029,9.348,0,5.164,51.03,9.35,113.979,9.35s113.979-4.186,113.979-9.35c0-5.083-49.443-9.219-111.028-9.348h-.495C-931.586,1761.389-890.49,1764.826-890.49,1769.052Z"/><path class="f" d="M-906.935,1767.7c0,3.547-35.055,6.423-78.3,6.423s-78.3-2.876-78.3-6.423c0-3.492,33.962-6.333,76.265-6.422h-.425c-51.189.107-92.286,3.544-92.286,7.77,0,4.292,42.418,7.772,94.742,7.772s94.742-3.48,94.742-7.772c0-4.226-41.1-7.663-92.286-7.77h-.425C-940.9,1761.37-906.935,1764.211-906.935,1767.7Z"/><path class="d" d="M-1063.528,1767.7c0,3.547,35.054,6.423,78.3,6.423s78.3-2.876,78.3-6.423c0-3.492-33.963-6.333-76.266-6.422l-2.031,0-2.031,0C-1029.566,1761.37-1063.528,1764.211-1063.528,1767.7Z"/></g><g transform="translate(2601.184 -1154.343)"><path class="g" d="M-1013.954,1754.671a139.057,139.057,0,0,1-21.411,3.09,12.177,12.177,0,0,1-8.907-2.877c-3.153-2.951-7.864-8.428-12.809-17.986l14.891-2.145,28.137,9.761Z"/><path class="h" d="M-983.312,1763.418a191.568,191.568,0,0,1-29.509,4.259,16.792,16.792,0,0,1-12.276-3.965c-4.345-4.068-10.837-11.616-17.654-24.788l20.524-5.189,38.779,15.684Z"/><path class="i" d="M-983.312,1763.418a191.568,191.568,0,0,1-29.509,4.259,16.792,16.792,0,0,1-12.276-3.965c-4.345-4.068-10.837-11.616-17.654-24.788l20.524-5.189,38.779,15.684Z"/><path class="g" d="M-954.338,1754.671a139.031,139.031,0,0,0,21.411,3.09,12.177,12.177,0,0,0,8.907-2.877c3.153-2.951,7.863-8.428,12.809-17.986l-14.892-2.145-28.137,9.761Z"/><path class="i" d="M-984.98,1763.418a191.568,191.568,0,0,0,29.509,4.259,16.79,16.79,0,0,0,12.275-3.965c4.346-4.068,10.838-11.616,17.654-24.788l-20.524-5.189-38.778,15.684Z"/><path class="j" d="M-942.719,1736.1h-83.65l20.109,27.341c4.027,5.475,11.854,8.892,20.371,8.892h2.689c8.518,0,16.345-3.417,20.372-8.892Z"/><path class="k" d="M-942.719,1736.1h-83.65l20.109,27.341c4.027,5.475,11.854,8.892,20.371,8.892h2.689c8.518,0,16.345-3.417,20.372-8.892Z"/><path class="l" d="M-962.828,1754.571c-4.027,3.7-11.854,6.008-20.372,6.008h-2.689c-8.517,0-16.344-2.308-20.371-6.008l-20.109-18.475,20.109,27.341c4.027,5.475,11.854,8.891,20.371,8.891h2.689c8.518,0,16.345-3.416,20.372-8.891l20.109-27.341Z"/></g><path d="M-914.68,1698.667l-19.162,6.8a13.948,13.948,0,0,1-12.943-1.916l-29.085-21.437a13.949,13.949,0,0,0-16.552,0l-29.085,21.437a13.948,13.948,0,0,1-12.943,1.916l-19.163-6.8a13.922,13.922,0,0,0-4.712-.8,19.533,19.533,0,0,0-.267,3.313c5.61,0,10.158,7.779,10.158,17.376s-4.548,17.377-10.158,17.377a15.639,15.639,0,0,0,1.078,1.911l5.818-2.088a24.06,24.06,0,0,1,10.37-.964,4.155,4.155,0,0,1,1.433.454s15.141,7.805,15.641,7.864a25.014,25.014,0,0,0,9.294-.621,4.088,4.088,0,0,0,.892-.375l20.242-11.258a19.929,19.929,0,0,1,9.607-2.578h.142a19.922,19.922,0,0,1,9.606,2.578l20.243,11.258a4.088,4.088,0,0,0,.892.375,25.012,25.012,0,0,0,9.294.621,4.175,4.175,0,0,0,1.428-.452l11.28-5.883a17.969,17.969,0,0,1,10.233-2.006,19.875,19.875,0,0,1,4.5.987l5.817,2.088a15.585,15.585,0,0,0,1.079-1.911c-5.61,0-10.158-7.78-10.158-17.377s4.548-17.376,10.158-17.376a19.539,19.539,0,0,0-.267-3.313A13.931,13.931,0,0,0-914.68,1698.667Z" transform="translate(2601.184 -1154.343)"/><g transform="translate(2601.184 -1154.343)"><ellipse class="m" cx="9.611" cy="10.743" rx="9.611" ry="10.743" transform="translate(-1007.75 1700.13)"/><ellipse class="m" cx="9.611" cy="7.71" rx="9.611" ry="7.71" transform="translate(-980.561 1704.37)"/><circle class="n" cx="4.849" cy="4.849" r="4.849" transform="translate(-999.887 1706.811)"/><circle class="m" cx="1.765" cy="1.765" r="1.765" transform="translate(-996.804 1706.811)"/><circle class="n" cx="3.139" cy="3.139" r="3.139" transform="translate(-978.567 1708.887)"/><circle class="m" cx="1.368" cy="1.368" r="1.368" transform="translate(-976.796 1708.887)"/></g><g transform="translate(2601.184 -1154.343)"><path class="o" d="M-947.912,1751.055q-1.038,0-2.074-.088l-.242-.022a24.36,24.36,0,0,1-9.634-3.035l-18.577-10.332a11.348,11.348,0,0,0-5.08-1.485c-.416-.013-.84-.013-1.258,0a11.333,11.333,0,0,0-5.076,1.484l-18.577,10.332a24.359,24.359,0,0,1-9.635,3.035l-.154.014-.087.008a24.9,24.9,0,0,1-13.634-2.771l-10.962-5.718a16.01,16.01,0,0,0-6.157.624l-10.442,3.749a7.8,7.8,0,0,1-9.982-4.708,7.805,7.805,0,0,1,4.708-9.982l10.441-3.749a31.7,31.7,0,0,1,13.919-1.369,11.9,11.9,0,0,1,4.125,1.282l11.567,6.032a9.318,9.318,0,0,0,5.09,1.059l.034,0,.094-.009a8.869,8.869,0,0,0,3.488-1.133l18.578-10.332a26.984,26.984,0,0,1,12.15-3.445c.759-.024,1.526-.024,2.282,0a26.985,26.985,0,0,1,12.154,3.445l18.577,10.332a8.878,8.878,0,0,0,3.489,1.133l.063.007.114.01a9.287,9.287,0,0,0,5.041-1.064l8.628-4.5a25.667,25.667,0,0,1,14.689-2.845,27.482,27.482,0,0,1,6.3,1.4l10.44,3.748a7.805,7.805,0,0,1,4.708,9.982,7.8,7.8,0,0,1-9.982,4.708l-10.442-3.749a12.251,12.251,0,0,0-2.712-.574,10.132,10.132,0,0,0-5.78,1.168l-8.628,4.5A24.992,24.992,0,0,1-947.912,1751.055Z"/></g><path class="p" d="M-908.791,1740.171l-10.442-3.749a12.3,12.3,0,0,0-2.712-.574,10.131,10.131,0,0,0-5.78,1.168l-8.628,4.5a24.981,24.981,0,0,1-11.559,2.861q-1.038,0-2.074-.089l-.242-.022a24.372,24.372,0,0,1-9.634-3.034l-18.577-10.333a11.349,11.349,0,0,0-5.08-1.485c-.416-.013-.84-.013-1.258,0a11.334,11.334,0,0,0-5.076,1.484l-18.577,10.333a24.372,24.372,0,0,1-9.635,3.034l-.154.015-.087.007a24.9,24.9,0,0,1-13.634-2.771l-10.962-5.718a16.05,16.05,0,0,0-6.157.624l-10.442,3.749a7.8,7.8,0,0,1-9.689-4.006,7.782,7.782,0,0,0-.293,5.978,7.8,7.8,0,0,0,9.982,4.708l10.442-3.749a16.01,16.01,0,0,1,6.157-.624l10.962,5.718a24.9,24.9,0,0,0,13.634,2.771l.087-.008.154-.014a24.359,24.359,0,0,0,9.635-3.035l18.577-10.332a11.333,11.333,0,0,1,5.076-1.484c.418-.014.842-.014,1.258,0a11.348,11.348,0,0,1,5.08,1.485l18.577,10.332a24.36,24.36,0,0,0,9.634,3.035l.242.022q1.037.088,2.074.088a24.992,24.992,0,0,0,11.559-2.86l8.628-4.5a10.132,10.132,0,0,1,5.78-1.168,12.251,12.251,0,0,1,2.712.574l10.442,3.749a7.8,7.8,0,0,0,9.982-4.708,7.778,7.778,0,0,0-.293-5.978A7.8,7.8,0,0,1-908.791,1740.171Z" transform="translate(2601.184 -1154.343)"/></g></svg>